<?xml version="1.0" encoding="UTF-8" standalone="no"?><svg xmlns="http://www.w3.org/2000/svg" xmlns:xlink="http://www.w3.org/1999/xlink" contentScriptType="application/ecmascript" contentStyleType="text/css" height="151px" preserveAspectRatio="none" style="width:244px;height:151px;" version="1.1" viewBox="0 0 244 151" width="244px" zoomAndPan="magnify"><defs><filter height="300%" id="fwvt2fvfo7wa5" width="300%" x="-1" y="-1"><feGaussianBlur result="blurOut" stdDeviation="2.0"/><feColorMatrix in="blurOut" result="blurOut2" type="matrix" values="0 0 0 0 0 0 0 0 0 0 0 0 0 0 0 0 0 0 .4 0"/><feOffset dx="4.0" dy="4.0" in="blurOut2" result="blurOut3"/><feBlend in="SourceGraphic" in2="blurOut3" mode="normal"/></filter></defs><g><!--entity Shared--><rect fill="#FEFECE" filter="url(#fwvt2fvfo7wa5)" height="36.2969" style="stroke: #A80036; stroke-width: 1.5;" width="69" x="97.5" y="8"/><rect fill="#FEFECE" height="5" style="stroke: #A80036; stroke-width: 1.5;" width="10" x="92.5" y="13"/><rect fill="#FEFECE" height="5" style="stroke: #A80036; stroke-width: 1.5;" width="10" x="92.5" y="34.2969"/><text fill="#000000" font-family="sans-serif" font-size="14" lengthAdjust="spacingAndGlyphs" textLength="49" x="107.5" y="30.9951">Shared</text><!--entity iOS App--><rect fill="#FEFECE" filter="url(#fwvt2fvfo7wa5)" height="36.2969" style="stroke: #A80036; stroke-width: 1.5;" width="74" x="6" y="104"/><rect fill="#FEFECE" height="5" style="stroke: #A80036; stroke-width: 1.5;" width="10" x="1" y="109"/><rect fill="#FEFECE" height="5" style="stroke: #A80036; stroke-width: 1.5;" width="10" x="1" y="130.2969"/><text fill="#000000" font-family="sans-serif" font-size="14" lengthAdjust="spacingAndGlyphs" textLength="54" x="16" y="126.9951">iOS App</text><!--entity cli--><rect fill="#FEFECE" filter="url(#fwvt2fvfo7wa5)" height="36.2969" style="stroke: #A80036; stroke-width: 1.5;" width="34" x="115" y="104"/><rect fill="#FEFECE" height="5" style="stroke: #A80036; stroke-width: 1.5;" width="10" x="110" y="109"/><rect fill="#FEFECE" height="5" style="stroke: #A80036; stroke-width: 1.5;" width="10" x="110" y="130.2969"/><text fill="#000000" font-family="sans-serif" font-size="14" lengthAdjust="spacingAndGlyphs" textLength="14" x="125" y="126.9951">cli</text><!--entity web--><rect fill="#FEFECE" filter="url(#fwvt2fvfo7wa5)" height="36.2969" style="stroke: #A80036; stroke-width: 1.5;" width="49" x="184.5" y="104"/><rect fill="#FEFECE" height="5" style="stroke: #A80036; stroke-width: 1.5;" width="10" x="179.5" y="109"/><rect fill="#FEFECE" height="5" style="stroke: #A80036; stroke-width: 1.5;" width="10" x="179.5" y="130.2969"/><text fill="#000000" font-family="sans-serif" font-size="14" lengthAdjust="spacingAndGlyphs" textLength="29" x="194.5" y="126.9951">web</text><!--link Shared to iOS App--><path d="M112.171,47.9428 C96.2312,64.7783 74.1165,88.1354 59.2205,103.8683 " fill="none" id="Shared-iOS App" style="stroke: #A80036; stroke-width: 1.0;"/><polygon fill="#A80036" points="115.676,44.241,106.5832,48.0254,112.238,47.8715,112.392,53.5262,115.676,44.241" style="stroke: #A80036; stroke-width: 1.0;"/><!--link Shared to cli--><path d="M132,49.6621 C132,66.3399 132,88.6642 132,103.8683 " fill="none" id="Shared-cli" style="stroke: #A80036; stroke-width: 1.0;"/><polygon fill="#A80036" points="132,44.241,128,53.241,132,49.241,136,53.241,132,44.241" style="stroke: #A80036; stroke-width: 1.0;"/><!--link Shared to web--><path d="M149.504,48.3686 C163.267,65.1703 182.187,88.2676 194.967,103.8683 " fill="none" id="Shared-web" style="stroke: #A80036; stroke-width: 1.0;"/><polygon fill="#A80036" points="146.123,44.241,148.7328,53.7378,149.2918,48.1086,154.921,48.6677,146.123,44.241" style="stroke: #A80036; stroke-width: 1.0;"/><!--
@startuml
[Shared]

[Shared] <- - [iOS App]
[Shared] <- - [cli]
[Shared] <- - [web]
@enduml

PlantUML version 1.2019.03(Sun Mar 10 11:04:44 UTC 2019)
(GPL source distribution)
Java Runtime: Java(TM) SE Runtime Environment
JVM: Java HotSpot(TM) 64-Bit Server VM
Java Version: 1.7.0_25-b15
Operating System: Linux
Default Encoding: UTF-8
Language: en
Country: US
--></g></svg>