<?xml version="1.0" encoding="UTF-8" standalone="no"?><svg xmlns="http://www.w3.org/2000/svg" xmlns:xlink="http://www.w3.org/1999/xlink" contentScriptType="application/ecmascript" contentStyleType="text/css" height="299px" preserveAspectRatio="none" style="width:538px;height:299px;" version="1.1" viewBox="0 0 538 299" width="538px" zoomAndPan="magnify"><defs><filter height="300%" id="f3ss3lct709yg" width="300%" x="-1" y="-1"><feGaussianBlur result="blurOut" stdDeviation="2.0"/><feColorMatrix in="blurOut" result="blurOut2" type="matrix" values="0 0 0 0 0 0 0 0 0 0 0 0 0 0 0 0 0 0 .4 0"/><feOffset dx="4.0" dy="4.0" in="blurOut2" result="blurOut3"/><feBlend in="SourceGraphic" in2="blurOut3" mode="normal"/></filter></defs><g><rect fill="#FFFFFF" filter="url(#f3ss3lct709yg)" height="171.6641" style="stroke: #A80036; stroke-width: 1.0;" width="10" x="134" y="69.4297"/><line style="stroke: #A80036; stroke-width: 1.0; stroke-dasharray: 5.0,5.0;" x1="37" x2="37" y1="38.2969" y2="259.0938"/><line style="stroke: #A80036; stroke-width: 1.0; stroke-dasharray: 5.0,5.0;" x1="138.5" x2="138.5" y1="38.2969" y2="259.0938"/><line style="stroke: #A80036; stroke-width: 1.0; stroke-dasharray: 5.0,5.0;" x1="445.5" x2="445.5" y1="38.2969" y2="259.0938"/><rect fill="#FEFECE" filter="url(#f3ss3lct709yg)" height="30.2969" style="stroke: #A80036; stroke-width: 1.5;" width="54" x="8" y="3"/><text fill="#000000" font-family="sans-serif" font-size="14" lengthAdjust="spacingAndGlyphs" textLength="40" x="15" y="22.9951">Vapor</text><rect fill="#FEFECE" filter="url(#f3ss3lct709yg)" height="30.2969" style="stroke: #A80036; stroke-width: 1.5;" width="54" x="8" y="258.0938"/><text fill="#000000" font-family="sans-serif" font-size="14" lengthAdjust="spacingAndGlyphs" textLength="40" x="15" y="278.0889">Vapor</text><rect fill="#FEFECE" filter="url(#f3ss3lct709yg)" height="30.2969" style="stroke: #A80036; stroke-width: 1.5;" width="41" x="116.5" y="3"/><text fill="#000000" font-family="sans-serif" font-size="14" lengthAdjust="spacingAndGlyphs" textLength="27" x="123.5" y="22.9951">App</text><rect fill="#FEFECE" filter="url(#f3ss3lct709yg)" height="30.2969" style="stroke: #A80036; stroke-width: 1.5;" width="41" x="116.5" y="258.0938"/><text fill="#000000" font-family="sans-serif" font-size="14" lengthAdjust="spacingAndGlyphs" textLength="27" x="123.5" y="278.0889">App</text><rect fill="#FEFECE" filter="url(#f3ss3lct709yg)" height="30.2969" style="stroke: #A80036; stroke-width: 1.5;" width="167" x="360.5" y="3"/><text fill="#000000" font-family="sans-serif" font-size="14" lengthAdjust="spacingAndGlyphs" textLength="153" x="367.5" y="22.9951">JSONPlaceholderClient</text><rect fill="#FEFECE" filter="url(#f3ss3lct709yg)" height="30.2969" style="stroke: #A80036; stroke-width: 1.5;" width="167" x="360.5" y="258.0938"/><text fill="#000000" font-family="sans-serif" font-size="14" lengthAdjust="spacingAndGlyphs" textLength="153" x="367.5" y="278.0889">JSONPlaceholderClient</text><rect fill="#FFFFFF" filter="url(#f3ss3lct709yg)" height="171.6641" style="stroke: #A80036; stroke-width: 1.0;" width="10" x="134" y="69.4297"/><polygon fill="#A80036" points="122,65.4297,132,69.4297,122,73.4297,126,69.4297" style="stroke: #A80036; stroke-width: 1.0;"/><line style="stroke: #A80036; stroke-width: 1.0;" x1="37" x2="128" y1="69.4297" y2="69.4297"/><text fill="#000000" font-family="sans-serif" font-size="13" lengthAdjust="spacingAndGlyphs" textLength="78" x="44" y="64.3638">new request</text><polygon fill="#A80036" points="434,94.5625,444,98.5625,434,102.5625,438,98.5625" style="stroke: #A80036; stroke-width: 1.0;"/><line style="stroke: #A80036; stroke-width: 1.0;" x1="144" x2="440" y1="98.5625" y2="98.5625"/><text fill="#000000" font-family="sans-serif" font-size="13" lengthAdjust="spacingAndGlyphs" textLength="32" x="151" y="93.4966">fetch</text><polygon fill="#A80036" points="155,123.6953,145,127.6953,155,131.6953,151,127.6953" style="stroke: #A80036; stroke-width: 1.0;"/><line style="stroke: #A80036; stroke-width: 1.0; stroke-dasharray: 2.0,2.0;" x1="149" x2="445" y1="127.6953" y2="127.6953"/><text fill="#000000" font-family="sans-serif" font-size="13" lengthAdjust="spacingAndGlyphs" textLength="133" x="161" y="122.6294">Decoded&lt;[Person]&gt;</text><line style="stroke: #A80036; stroke-width: 1.0;" x1="144" x2="186" y1="156.8281" y2="156.8281"/><line style="stroke: #A80036; stroke-width: 1.0;" x1="186" x2="186" y1="156.8281" y2="169.8281"/><line style="stroke: #A80036; stroke-width: 1.0;" x1="145" x2="186" y1="169.8281" y2="169.8281"/><polygon fill="#A80036" points="155,165.8281,145,169.8281,155,173.8281,151,169.8281" style="stroke: #A80036; stroke-width: 1.0;"/><text fill="#000000" font-family="sans-serif" font-size="13" lengthAdjust="spacingAndGlyphs" textLength="283" x="151" y="151.7622">map(Decoded&lt;[Person]&gt;) -&gt; [Index.Result]</text><line style="stroke: #A80036; stroke-width: 1.0;" x1="144" x2="186" y1="198.9609" y2="198.9609"/><line style="stroke: #A80036; stroke-width: 1.0;" x1="186" x2="186" y1="198.9609" y2="211.9609"/><line style="stroke: #A80036; stroke-width: 1.0;" x1="145" x2="186" y1="211.9609" y2="211.9609"/><polygon fill="#A80036" points="155,207.9609,145,211.9609,155,215.9609,151,211.9609" style="stroke: #A80036; stroke-width: 1.0;"/><text fill="#000000" font-family="sans-serif" font-size="13" lengthAdjust="spacingAndGlyphs" textLength="227" x="151" y="193.895">map([Index.Result]) -&gt; HTML String</text><polygon fill="#A80036" points="48,237.0938,38,241.0938,48,245.0938,44,241.0938" style="stroke: #A80036; stroke-width: 1.0;"/><line style="stroke: #A80036; stroke-width: 1.0;" x1="42" x2="138" y1="241.0938" y2="241.0938"/><text fill="#000000" font-family="sans-serif" font-size="13" lengthAdjust="spacingAndGlyphs" textLength="52" x="54" y="236.0278">respond</text><!--
@startuml
Vapor -> App: new request
activate App

App -> JSONPlaceholderClient: fetch
JSONPlaceholderClient - -> App: Decoded<[Person]>
App -> App: map(Decoded<[Person]>) -> [Index.Result]
App -> App: map([Index.Result]) -> HTML String
App -> Vapor: respond

deactivate App
@enduml

PlantUML version 1.2019.03(Sun Mar 10 11:04:44 UTC 2019)
(GPL source distribution)
Java Runtime: Java(TM) SE Runtime Environment
JVM: Java HotSpot(TM) 64-Bit Server VM
Java Version: 1.7.0_25-b15
Operating System: Linux
Default Encoding: UTF-8
Language: en
Country: US
--></g></svg>